<svg role="img" aria-label="Platzhirschen" xmlns="http://www.w3.org/2000/svg" viewBox="0.00 0.00 1577.00 258.00"><path fill="#b4ec00" d="M 295.33 0.00 L 368.86 0.00 L 369.98 0.32 Q 370.47 0.47 370.55 0.97 L 400.14 197.88 Q 400.32 199.06 399.13 199.06 L 347.66 198.98 A 1.42 1.41 88.0 0 1 346.25 197.66 L 343.92 163.66 Q 343.87 162.95 343.16 162.95 L 326.91 162.98 Q 326.18 162.98 326.11 163.72 L 323.11 197.80 Q 323.01 198.89 321.91 198.91 Q 296.07 199.28 269.88 198.87 A 1.03 1.02 4.2 0 1 268.88 197.72 L 295.33 0.00 Z M 325.53 126.89 A 0.08 0.07 -86.4 0 0 325.60 126.98 L 341.09 126.94 Q 341.96 126.94 341.98 126.07 Q 342.03 124.24 341.83 122.37 Q 338.06 87.42 335.55 55.60 Q 335.39 53.52 334.75 51.46 Q 334.54 50.80 334.45 51.48 Q 330.12 82.92 326.59 114.70 C 326.14 118.72 326.11 122.86 325.53 126.89 Z"/><path fill="#b4ec00" d="M 385.09 0.00 L 497.81 0.00 L 497.89 39.95 A 1.14 1.14 0.0 0 1 496.74 41.10 L 468.76 40.99 A 0.75 0.75 0.0 0 0 468.00 41.74 L 468.00 197.75 A 1.16 1.15 89.5 0 1 466.87 198.91 Q 442.06 199.25 415.91 198.90 A 0.92 0.92 0.0 0 1 415.00 197.98 L 415.00 41.74 A 0.75 0.75 0.0 0 0 414.24 40.99 L 386.28 41.10 A 1.17 1.16 89.8 0 1 385.11 39.93 L 385.09 0.00 Z"/><path fill="#b4ec00" d="M 503.01 0.00 L 593.87 0.00 Q 594.25 17.50 593.96 35.00 C 593.91 38.25 593.48 41.41 592.48 44.46 C 580.30 81.78 568.03 120.30 556.15 156.16 Q 555.53 158.00 557.48 158.00 L 593.38 157.99 A 0.64 0.63 90.0 0 1 594.01 158.63 L 593.99 197.96 Q 593.99 198.51 593.45 198.61 Q 590.86 199.06 588.18 199.06 Q 542.69 199.07 499.16 198.97 Q 498.03 198.97 498.01 197.84 Q 497.86 185.47 497.97 173.25 Q 498.03 167.19 500.12 160.64 Q 503.83 149.00 507.06 138.46 Q 522.65 87.61 536.03 44.30 Q 536.35 43.26 536.92 42.06 A 0.72 0.72 0.0 0 0 536.27 41.03 L 503.47 41.02 Q 502.88 41.02 502.88 40.44 L 503.01 0.00 Z"/><path fill="#b4ec00" d="M 606.98 0.00 L 658.94 0.00 L 659.00 70.45 Q 659.00 71.00 659.54 71.00 L 673.30 71.00 Q 674.01 71.00 674.01 70.29 L 674.04 0.00 L 725.94 0.00 L 726.02 197.97 A 1.05 1.05 0.0 0 1 724.96 199.02 L 675.01 199.00 A 1.01 1.01 0.0 0 1 674.00 197.99 L 674.00 116.50 A 0.50 0.50 0.0 0 0 673.50 116.00 L 659.50 116.00 A 0.50 0.50 0.0 0 0 659.00 116.50 L 659.00 198.00 A 1.00 1.00 0.0 0 1 658.00 199.00 L 608.16 199.03 Q 606.99 199.03 606.99 197.86 L 606.98 0.00 Z"/><path fill="#b4ec00" d="M 745.01 0.00 L 796.99 0.00 L 797.00 198.23 A 0.78 0.78 0.0 0 1 796.22 199.01 L 745.67 199.01 A 0.67 0.66 0.0 0 1 745.00 198.35 L 745.01 0.00 Z"/><path fill="#b4ec00" d="M 817.02 0.00 L 880.02 0.00 C 886.17 0.53 893.46 0.59 900.59 1.75 C 912.22 3.63 922.19 10.68 927.06 21.16 C 929.72 26.87 931.34 33.79 931.85 40.06 Q 933.08 55.17 931.47 70.67 C 930.64 78.58 928.05 85.71 921.04 89.91 C 917.53 92.01 912.64 92.71 908.56 93.95 Q 907.62 94.24 908.54 94.58 Q 910.79 95.43 912.97 96.18 Q 927.92 101.29 931.45 116.69 C 932.57 121.56 931.97 129.20 932.22 135.21 Q 933.53 166.99 932.86 198.16 A 0.88 0.87 0.7 0 1 931.98 199.01 L 885.06 199.01 A 1.09 1.09 0.0 0 1 883.97 197.92 Q 884.05 167.13 883.96 133.84 Q 883.94 125.88 882.96 118.43 C 882.46 114.58 881.50 110.88 877.50 109.68 Q 873.66 108.54 870.05 109.05 Q 869.00 109.20 869.00 110.26 L 869.00 197.75 A 1.25 1.25 0.0 0 1 867.75 199.00 L 818.04 199.01 Q 817.04 199.01 817.04 198.00 L 817.02 0.00 Z M 883.78 45.98 C 883.39 40.50 881.02 34.72 874.93 34.09 Q 872.28 33.82 869.55 34.08 A 0.62 0.61 -3.1 0 0 869.00 34.69 L 868.99 75.22 Q 868.99 75.80 869.58 75.88 Q 874.30 76.45 878.90 74.95 C 882.84 73.67 883.46 65.98 883.70 62.59 Q 884.34 53.72 883.78 45.98 Z"/><path fill="#b4ec00" d="M 977.29 0.00 L 1030.12 0.00 C 1032.02 0.24 1033.80 0.27 1035.59 0.93 Q 1044.40 4.20 1051.45 10.70 C 1057.23 16.03 1059.33 22.47 1060.29 29.97 Q 1062.32 45.82 1062.06 60.09 A 1.07 1.07 0.0 0 1 1060.99 61.14 L 1014.06 60.99 Q 1012.97 60.99 1012.98 59.90 C 1013.07 51.67 1013.47 43.09 1012.02 34.99 C 1011.59 32.61 1009.82 30.58 1007.41 30.10 C 994.36 27.55 996.49 47.77 997.55 54.43 Q 998.64 61.26 1004.85 65.50 C 1017.38 74.07 1030.48 81.04 1042.81 90.37 C 1049.56 95.47 1055.82 101.10 1059.41 108.67 Q 1063.62 117.56 1064.95 128.90 Q 1067.09 147.16 1065.07 163.94 C 1064.19 171.32 1062.39 178.25 1057.47 184.09 C 1048.02 195.29 1031.70 201.55 1017.48 201.82 Q 1004.76 202.06 997.19 201.65 Q 981.33 200.79 966.94 191.33 C 954.14 182.91 950.69 169.91 949.62 155.46 Q 948.64 142.38 948.96 127.72 A 0.79 0.79 0.0 0 1 949.75 126.95 L 996.51 126.96 A 1.56 1.56 0.0 0 1 998.07 128.55 Q 997.83 142.81 998.12 156.48 C 998.21 160.74 998.58 167.70 1004.45 168.04 C 1009.01 168.30 1012.84 167.53 1014.48 162.52 C 1016.87 155.20 1016.18 147.16 1014.99 139.40 Q 1013.71 131.03 1007.67 126.41 C 997.53 118.66 986.73 111.69 975.82 104.62 Q 968.72 100.02 962.39 94.54 C 956.46 89.42 952.34 81.30 950.03 74.00 Q 947.96 67.45 947.69 58.60 Q 947.38 48.62 947.90 39.17 Q 948.46 29.14 952.07 20.56 C 956.07 11.09 966.82 1.38 977.29 0.00 Z"/><path fill="#b4ec00" d="M 1114.28 0.00 L 1165.36 0.00 C 1167.34 0.27 1169.11 0.36 1171.00 1.07 Q 1181.84 5.15 1190.45 14.82 C 1198.61 23.97 1200.39 36.88 1201.22 48.70 Q 1202.46 66.45 1201.89 86.35 A 0.67 0.66 0.9 0 1 1201.22 86.99 L 1149.69 87.03 Q 1149.01 87.03 1149.01 86.34 Q 1148.99 65.06 1149.01 42.32 Q 1149.02 36.83 1147.50 32.92 C 1146.21 29.62 1141.67 29.80 1138.71 30.11 Q 1134.12 30.59 1133.13 35.03 Q 1131.97 40.26 1131.98 46.03 Q 1132.04 95.64 1131.98 150.09 C 1131.97 154.97 1131.85 162.15 1134.63 166.09 C 1136.49 168.72 1141.35 168.30 1144.04 167.75 C 1147.92 166.95 1148.71 159.43 1148.78 156.39 Q 1149.22 137.73 1148.94 118.37 A 0.37 0.37 0.0 0 1 1149.31 118.00 L 1201.30 118.00 A 0.58 0.57 89.0 0 1 1201.87 118.56 Q 1202.63 140.75 1199.51 161.66 Q 1197.62 174.30 1190.27 182.40 Q 1177.13 196.89 1159.77 200.63 Q 1152.67 202.16 1143.54 201.90 C 1136.33 201.69 1128.79 202.18 1121.44 200.84 Q 1109.51 198.66 1098.81 191.49 C 1085.94 182.87 1081.64 168.09 1080.34 152.99 Q 1079.04 137.73 1078.99 122.23 Q 1078.92 95.09 1079.09 65.37 Q 1079.15 55.77 1079.83 45.72 Q 1080.57 34.96 1082.86 28.62 Q 1088.47 13.15 1104.17 3.92 Q 1109.59 0.73 1114.28 0.00 Z"/><path fill="#b4ec00" d="M 1220.84 0.00 L 1271.98 0.00 L 1271.99 70.40 Q 1271.99 70.95 1272.54 70.95 L 1286.51 70.95 Q 1287.04 70.95 1287.04 70.42 L 1287.03 0.00 L 1338.98 0.00 L 1339.01 197.65 Q 1339.01 199.00 1337.66 199.00 L 1288.21 199.02 Q 1286.99 199.02 1286.99 197.80 L 1287.00 116.50 A 0.50 0.50 0.0 0 0 1286.50 116.00 L 1272.49 116.00 A 0.50 0.49 -90.0 0 0 1272.00 116.50 L 1272.01 197.75 A 1.27 1.26 -90.0 0 1 1270.75 199.02 L 1221.31 199.00 Q 1220.00 199.00 1220.00 197.69 Q 1220.00 99.91 1219.94 1.50 Q 1219.94 0.22 1220.84 0.00 Z"/><path fill="#b4ec00" d="M 1359.01 0.00 L 1444.93 0.00 L 1444.99 40.52 A 0.49 0.48 0.0 0 1 1444.50 41.00 L 1412.00 41.00 A 1.00 0.99 90.0 0 0 1411.01 42.00 L 1411.00 76.50 Q 1411.00 77.00 1411.50 77.00 L 1442.25 77.01 A 0.75 0.74 0.0 0 1 1443.00 77.75 L 1443.00 115.50 A 0.50 0.49 0.0 0 1 1442.50 115.99 L 1411.50 116.01 A 0.50 0.49 -0.0 0 0 1411.00 116.50 L 1411.00 157.50 Q 1411.00 158.00 1411.50 158.00 L 1448.25 158.00 A 0.76 0.75 -0.0 0 1 1449.01 158.75 L 1449.00 197.76 Q 1449.00 199.02 1447.74 199.02 L 1360.04 199.03 A 1.04 1.04 0.0 0 1 1359.00 197.99 L 1359.01 0.00 Z"/><path fill="#b4ec00" d="M 1462.02 0.00 L 1505.78 0.00 L 1532.82 83.32 A 0.05 0.05 0.0 0 0 1532.92 83.30 L 1533.08 0.00 L 1577.00 0.00 L 1577.00 197.75 L 1576.66 198.54 Q 1576.45 199.02 1575.92 199.02 L 1532.12 199.05 Q 1531.13 199.05 1530.99 198.07 Q 1530.67 195.89 1530.29 194.65 Q 1518.63 156.20 1508.23 119.72 Q 1507.60 117.49 1507.00 115.19 Q 1506.16 111.95 1506.11 115.29 Q 1505.94 128.58 1506.00 140.68 Q 1506.14 169.62 1505.96 197.79 A 1.25 1.24 -89.8 0 1 1504.72 199.03 L 1463.03 199.02 A 1.08 1.07 -90.0 0 1 1461.96 197.94 L 1462.02 0.00 Z"/><path fill="#b4ec00" d="M 63.17 258.00 L 0.00 258.00 L 0.00 1.14 Q 34.60 0.87 69.25 1.01 Q 86.02 1.07 100.75 4.06 Q 111.62 6.27 120.40 11.64 C 138.66 22.81 139.84 44.99 140.19 64.14 Q 140.57 84.92 140.10 102.94 Q 139.91 110.34 138.54 119.33 C 132.96 155.91 91.40 154.56 63.63 154.02 A 0.44 0.44 0.0 0 0 63.18 154.46 L 63.17 258.00 Z M 77.19 46.07 Q 71.97 43.79 63.87 44.25 Q 63.21 44.29 63.21 44.94 L 63.15 110.27 Q 63.15 110.88 63.76 110.92 C 70.60 111.42 79.96 110.73 82.48 103.13 Q 84.04 98.41 84.17 93.69 Q 84.56 79.40 84.31 64.43 C 84.21 58.13 83.70 48.91 77.19 46.07 Z"/><path fill="#b4ec00" d="M 258.24 258.00 L 159.31 258.00 L 159.30 1.25 A 0.25 0.25 0.0 0 1 159.55 1.00 L 225.59 1.00 Q 226.18 1.00 226.18 1.59 L 226.18 206.45 Q 226.18 206.94 226.67 206.94 Q 293.27 207.08 366.75 207.06 Q 644.96 207.02 928.25 206.94 Q 955.00 206.93 980.50 206.96 C 992.18 206.97 1004.66 207.78 1016.69 207.28 Q 1025.37 206.93 1033.19 206.95 Q 1072.53 207.03 1112.17 206.95 Q 1121.44 206.94 1131.90 207.36 C 1141.42 207.74 1151.04 206.97 1160.25 206.97 Q 1373.77 207.03 1575.25 207.03 A 0.76 0.76 0.0 0 1 1576.01 207.79 L 1575.99 256.20 A 0.81 0.80 0.0 0 1 1575.18 257.00 Q 929.65 257.00 284.00 257.00 Q 276.50 257.00 258.24 258.00 Z"/></svg>